<?xml version="1.0" standalone="no"?>
<!DOCTYPE svg PUBLIC "-//W3C//DTD SVG 20010904//EN"
 "http://www.w3.org/TR/2001/REC-SVG-20010904/DTD/svg10.dtd">
<svg version="1.0" xmlns="http://www.w3.org/2000/svg"
 width="100.000000pt" height="100.000000pt" viewBox="0 0 100.000000 100.000000"
 preserveAspectRatio="xMidYMid meet">
<metadata>
Created by potrace 1.11, written by Peter Selinger 2001-2013
</metadata>
<g transform="translate(0.000000,100.000000) scale(0.100000,-0.100000)"
fill="#000000" stroke="none">
<path d="M430 951 c-25 -5 -75 -22 -112 -39 -86 -39 -192 -143 -227 -223 -13
-29 -27 -62 -32 -71 -5 -10 -9 -64 -9 -120 0 -118 15 -173 73 -273 33 -57 141
-143 227 -180 65 -29 264 -29 332 0 27 11 48 23 48 28 0 4 8 7 18 7 9 0 38 18
65 41 39 34 47 46 47 75 0 52 -40 88 -87 81 -20 -4 -45 -15 -57 -25 -53 -49
-107 -67 -201 -67 -84 0 -93 2 -143 33 -60 37 -92 68 -131 127 -23 36 -26 49
-26 135 1 110 17 153 89 225 66 66 105 80 216 80 95 -1 95 -1 165 -45 81 -50
128 -56 157 -20 29 36 23 81 -14 117 -41 39 -100 74 -158 96 -54 20 -177 29
-240 18z"/>
<path d="M446 559 c-34 -40 -41 -72 -26 -110 25 -60 88 -84 154 -59 63 24 80
119 30 171 -24 25 -35 29 -80 29 -46 0 -55 -4 -78 -31z"/>
</g>
</svg>
