<?xml version="1.0" encoding="UTF-8" standalone="no"?>
<!DOCTYPE svg PUBLIC "-//W3C//DTD SVG 1.1//EN" "http://www.w3.org/Graphics/SVG/1.1/DTD/svg11.dtd">
<svg width="100%" height="100%" viewBox="0 0 230 230" version="1.1" xmlns="http://www.w3.org/2000/svg" xmlns:xlink="http://www.w3.org/1999/xlink" xml:space="preserve" style="fill-rule:evenodd;clip-rule:evenodd;stroke-linejoin:round;stroke-miterlimit:1.41421;">
    <g transform="matrix(1,0,0,1,-1615.69,-6591.9)">
        <g id="iPhone" transform="matrix(1,0,0,3.75056,1380.76,0.5)">
            <rect x="0" y="0" width="1242" height="2208" style="fill:none;"/>
            <g transform="matrix(1.43773,0,0,0.383337,63.8415,-296.095)">
                <circle cx="199" cy="5437" r="80" style="fill:rgb(3,169,244);"/>
            </g>
            <g id="nubicam.-icons_icon.-05" transform="matrix(6.38889,0,0,1.70345,349.931,1788.11)">
                <g transform="matrix(1,0,0,1,-18,-18)">
                    <circle cx="18" cy="18" r="16" style="fill:rgb(3,169,245);"/>
                    <g>
                        <path d="M21.5,9.5L14.4,9.5C13.7,9.5 13.2,10.1 13.2,10.7L13.2,25.1C13.2,25.8 13.8,26.3 14.4,26.3L21.5,26.3C22.2,26.3 22.7,25.7 22.7,25.1L22.7,10.8C22.8,10.1 22.2,9.5 21.5,9.5ZM13.8,11.8L22.3,11.8L22.3,22.5L13.8,22.5L13.8,11.8ZM14.5,10.1L21.6,10.1C22,10.1 22.3,10.4 22.3,10.8L22.3,11.3L13.8,11.3L13.8,10.8C13.8,10.4 14.1,10.1 14.5,10.1ZM21.5,25.9L14.4,25.9C14,25.9 13.7,25.6 13.7,25.2L13.7,23.1L22.2,23.1L22.2,25.2C22.2,25.6 21.9,25.9 21.5,25.9Z" style="fill:white;fill-rule:nonzero;"/>
                        <path d="M18,23.4C17.4,23.4 16.9,23.9 16.9,24.5C16.9,25.1 17.4,25.6 18,25.6C18.6,25.6 19.1,25.1 19.1,24.5C19.1,23.9 18.6,23.4 18,23.4ZM18,25C17.7,25 17.4,24.7 17.4,24.4C17.4,24.1 17.7,23.8 18,23.8C18.3,23.8 18.6,24.1 18.6,24.4C18.6,24.8 18.3,25 18,25Z" style="fill:white;fill-rule:nonzero;"/>
                        <path d="M16.9,11L18,11C18.2,11 18.3,10.9 18.3,10.7C18.3,10.5 18.2,10.4 18,10.4L16.9,10.4C16.7,10.4 16.6,10.5 16.6,10.7C16.6,10.8 16.7,11 16.9,11Z" style="fill:white;fill-rule:nonzero;"/>
                        <path d="M18.8,11L19.1,11C19.3,11 19.4,10.9 19.4,10.7C19.4,10.5 19.3,10.4 19.1,10.4L18.8,10.4C18.6,10.4 18.5,10.5 18.5,10.7C18.6,10.8 18.7,11 18.8,11Z" style="fill:white;fill-rule:nonzero;"/>
                        <path d="M25.5,10.8C25.4,10.7 25.2,10.7 25.1,10.8C25,10.9 25,11.1 25.1,11.2C26.2,12.3 26.2,14 25.1,15C25,15.1 25,15.3 25.1,15.4C25.2,15.5 25.2,15.5 25.3,15.5C25.4,15.5 25.4,15.5 25.5,15.4C26.8,14.2 26.8,12.1 25.5,10.8Z" style="fill:white;fill-rule:nonzero;"/>
                        <path d="M24.3,11.5C24.2,11.4 24,11.4 23.9,11.5C23.8,11.6 23.8,11.8 23.9,11.9C24.2,12.2 24.4,12.7 24.4,13.2C24.4,13.7 24.2,14.2 23.9,14.5C23.8,14.6 23.8,14.8 23.9,14.9C24,14.9 24,15 24.1,15C24.2,15 24.2,15 24.3,14.9C24.8,14.4 25,13.8 25,13.2C25,12.5 24.8,11.9 24.3,11.5Z" style="fill:white;fill-rule:nonzero;"/>
                        <path d="M10.9,11.2C11,11.1 11,10.9 10.9,10.8C10.8,10.7 10.6,10.7 10.5,10.8C9.2,12.1 9.2,14.1 10.5,15.4C10.6,15.5 10.6,15.5 10.7,15.5C10.8,15.5 10.8,15.5 10.9,15.4C11,15.3 11,15.1 10.9,15C9.8,14 9.8,12.3 10.9,11.2Z" style="fill:white;fill-rule:nonzero;"/>
                        <path d="M12.1,11.4C12,11.3 11.8,11.3 11.7,11.4C11.2,11.9 11,12.5 11,13.1C11,13.7 11.3,14.4 11.7,14.8C11.8,14.9 11.8,14.9 11.9,14.9C12,14.9 12,14.9 12.1,14.8C12.2,14.7 12.2,14.5 12.1,14.4C11.8,14.1 11.6,13.6 11.6,13.1C11.6,12.6 11.8,12.1 12.1,11.8C12.2,11.7 12.2,11.5 12.1,11.4Z" style="fill:white;fill-rule:nonzero;"/>
                    </g>
                </g>
            </g>
        </g>
    </g>
</svg>
