<?xml version="1.0" encoding="UTF-8" standalone="no"?>
<!DOCTYPE svg PUBLIC "-//W3C//DTD SVG 1.1//EN" "http://www.w3.org/Graphics/SVG/1.1/DTD/svg11.dtd">
<svg width="100%" height="100%" viewBox="0 0 230 230" version="1.1" xmlns="http://www.w3.org/2000/svg" xmlns:xlink="http://www.w3.org/1999/xlink" xml:space="preserve" style="fill-rule:evenodd;clip-rule:evenodd;stroke-linejoin:round;stroke-miterlimit:1.41421;">
    <g transform="matrix(1,0,0,1,-2148.81,-6089.55)">
        <g id="iPhone" transform="matrix(1,0,0,3.75056,1380.76,0.5)">
            <rect x="0" y="0" width="1242" height="2208" style="fill:none;"/>
            <g transform="matrix(1.43773,0,0,0.383337,596.961,-430.045)">
                <circle cx="199" cy="5437" r="80" style="fill:rgb(3,169,244);"/>
            </g>
            <g id="nubicam.-icons_icon.-04" transform="matrix(6.38889,0,0,1.70345,883.051,1654.17)">
                <g transform="matrix(1,0,0,1,-18,-18)">
                    <circle cx="18" cy="18" r="16" style="fill:rgb(3,169,245);"/>
                    <g>
                        <path d="M27.4,17.3C26.4,15.7 25,14.3 23.3,13.3C21.6,12.3 19.8,11.8 17.9,11.8C16,11.8 14.2,12.3 12.5,13.3C10.8,14.3 9.4,15.6 8.4,17.3C8.3,17.6 8.2,17.8 8.2,18C8.2,18.2 8.3,18.5 8.4,18.7C9.4,20.3 10.8,21.7 12.5,22.7C14.2,23.7 16,24.2 17.9,24.2C19.8,24.2 21.6,23.7 23.3,22.7C25,21.7 26.4,20.4 27.4,18.7C27.5,18.4 27.6,18.2 27.6,18C27.7,17.8 27.6,17.5 27.4,17.3ZM22.7,21.5C21.3,22.4 19.7,22.8 18,22.8C16.3,22.8 14.8,22.4 13.3,21.5C11.9,20.6 10.7,19.5 9.7,18C10.8,16.3 12.2,15 13.8,14.2C13.4,14.9 13.1,15.8 13.1,16.6C13.1,17.9 13.6,19.1 14.5,20C15.4,20.9 16.6,21.4 17.9,21.4C19.2,21.4 20.4,20.9 21.3,20C22.2,19.1 22.7,17.9 22.7,16.6C22.7,15.7 22.5,14.9 22,14.2C23.6,15 25,16.3 26.1,18C25.3,19.5 24.1,20.6 22.7,21.5Z" style="fill:white;fill-rule:nonzero;"/>
                        <g transform="matrix(1,0,0,1,0,0.171746)">
                            <path d="M16.188,17.828C15.489,17.517 15,16.815 15,16C15,14.896 15.896,14 17,14C17.815,14 18.517,14.489 18.828,15.188C18.58,15.078 18.306,15.017 18.017,15.017C16.913,15.017 16.017,15.913 16.017,17.017C16.017,17.306 16.078,17.58 16.188,17.828Z" style="fill:rgb(3,169,245);"/>
                        </g>
                    </g>
                </g>
            </g>
        </g>
    </g>
</svg>
