<?xml version="1.0" encoding="UTF-8" standalone="no"?>
<!DOCTYPE svg PUBLIC "-//W3C//DTD SVG 1.1//EN" "http://www.w3.org/Graphics/SVG/1.1/DTD/svg11.dtd">
<svg width="100%" height="100%" viewBox="0 0 230 230" version="1.1" xmlns="http://www.w3.org/2000/svg" xmlns:xlink="http://www.w3.org/1999/xlink" xml:space="preserve" style="fill-rule:evenodd;clip-rule:evenodd;stroke-linejoin:round;stroke-miterlimit:1.41421;">
    <g transform="matrix(1,0,0,1,-2148.85,-5586.3)">
        <g id="iPhone" transform="matrix(1,0,0,3.75056,1380.76,0.5)">
            <rect x="0" y="0" width="1242" height="2208" style="fill:none;"/>
            <g transform="matrix(1.43773,0,0,0.383337,596.961,-564.213)">
                <circle cx="199" cy="5437" r="80" style="fill:rgb(3,169,244);"/>
            </g>
            <g id="nubicam.-icons_icon.-02" transform="matrix(6.38889,0,0,1.70345,883.088,1519.99)">
                <g transform="matrix(1,0,0,1,-18,-18)">
                    <circle cx="18" cy="18" r="16" style="fill:rgb(3,169,245);"/>
                    <g>
                        <path d="M24,15.6C24,12.5 21.4,10 18.3,10C16.9,10 15.6,10.5 14.5,11.4C13.6,12.2 12.9,13.3 12.7,14.5L12.6,14.5C9.9,14.5 7.8,16.7 7.8,19.3C7.8,22 10,24.1 12.6,24.1L16,24.1C16.2,24.1 16.4,23.9 16.4,23.7C16.4,23.5 16.2,23.3 16,23.3L12.6,23.3C10.4,23.3 8.6,21.5 8.6,19.3C8.6,17.1 10.4,15.3 12.6,15.3C12.7,15.3 12.8,15.3 13,15.3C13.2,15.3 13.4,15.2 13.5,14.9C13.7,13.8 14.2,12.7 15.1,11.9C16,11.1 17.1,10.7 18.3,10.7C21,10.7 23.1,12.9 23.1,15.5C23.1,15.6 23.1,15.7 23.1,15.8C23.1,15.9 23.1,16.1 23.2,16.1C23.3,16.2 23.4,16.2 23.5,16.2C23.6,16.2 23.7,16.2 23.8,16.2C25.7,16.2 27.2,17.7 27.2,19.6C27.2,21.5 25.7,23 23.8,23L20.3,23C20.1,23 19.9,23.2 19.9,23.4C19.9,23.6 20.1,23.8 20.3,23.8L23.8,23.8C26.2,23.8 28.1,21.9 28.1,19.5C28.2,17.5 26.3,15.6 24,15.6Z" style="fill:white;fill-rule:nonzero;"/>
                        <path d="M18.3,12C16.5,12 14.9,13.4 14.7,15.2C14.7,15.4 14.8,15.7 15.1,15.7L15.2,15.7C15.4,15.7 15.6,15.5 15.6,15.3C15.8,13.9 17,12.9 18.4,12.9C18.6,12.9 18.8,12.7 18.8,12.5C18.7,12.2 18.5,12 18.3,12Z" style="fill:white;fill-rule:nonzero;"/>
                        <path d="M20.2,20.5L18.6,19.1C18.3,18.9 17.9,18.9 17.6,19.1L16,20.5C15.8,20.7 15.8,20.9 16,21.1C16.2,21.3 16.4,21.3 16.6,21.1L17.6,20.2L17.6,25.5C17.6,25.7 17.8,25.9 18,25.9C18.2,25.9 18.4,25.7 18.4,25.5L18.4,20.2L19.4,21.1C19.5,21.2 19.6,21.2 19.7,21.2C19.8,21.2 19.9,21.2 20,21.1C20.4,21 20.4,20.7 20.2,20.5Z" style="fill:white;fill-rule:nonzero;"/>
                    </g>
                </g>
            </g>
        </g>
    </g>
</svg>
