<?xml version="1.0" encoding="UTF-8" standalone="no"?>
<!DOCTYPE svg PUBLIC "-//W3C//DTD SVG 1.1//EN" "http://www.w3.org/Graphics/SVG/1.1/DTD/svg11.dtd">
<svg width="100%" height="100%" viewBox="0 0 230 230" version="1.1" xmlns="http://www.w3.org/2000/svg" xmlns:xlink="http://www.w3.org/1999/xlink" xml:space="preserve" style="fill-rule:evenodd;clip-rule:evenodd;stroke-linejoin:round;stroke-miterlimit:1.41421;">
    <g transform="matrix(1,0,0,1,-2148.81,-6591.93)">
        <g id="iPhone" transform="matrix(1,0,0,3.75056,1380.76,0.5)">
            <rect x="0" y="0" width="1242" height="2208" style="fill:none;"/>
            <g transform="matrix(1.43773,0,0,0.383337,596.961,-296.095)">
                <circle cx="199" cy="5437" r="80" style="fill:rgb(3,169,244);"/>
            </g>
            <g id="nubicam.-icons_icon.-06" transform="matrix(6.38889,0,0,1.70345,883.051,1788.12)">
                <g transform="matrix(1,0,0,1,-18,-18)">
                    <circle cx="18" cy="18" r="16" style="fill:rgb(3,169,245);"/>
                    <g>
                        <path d="M21.4,11.6C21.2,11.5 21,11.6 21,11.8C20.9,12 21,12.2 21.2,12.2C23.5,13.2 25.1,15.4 25.1,18C25.1,21.4 22.3,24.2 18.9,24.2C18.7,24.2 18.6,24.3 18.6,24.5C18.6,24.7 18.7,24.8 18.9,24.8C22.7,24.8 25.8,21.7 25.8,17.9C25.7,15.2 24,12.7 21.4,11.6Z" style="fill:white;fill-rule:nonzero;"/>
                        <path d="M18.8,22.5C21.3,22.5 23.3,20.5 23.3,18C23.3,15.5 21.3,13.5 18.8,13.5C18.6,13.5 18.5,13.6 18.5,13.8C18.5,14 18.6,14.1 18.8,14.1C20.9,14.1 22.6,15.8 22.6,17.9C22.6,20 20.9,21.7 18.8,21.7C18.6,21.7 18.5,21.8 18.5,22C18.5,22.3 18.6,22.5 18.8,22.5Z" style="fill:white;fill-rule:nonzero;"/>
                        <path d="M19.8,19.1C19.7,19.2 19.7,19.4 19.8,19.6C19.9,19.7 19.9,19.7 20,19.7C20.1,19.7 20.2,19.7 20.2,19.6C20.6,19.2 20.9,18.6 20.9,18C20.9,16.8 19.9,15.8 18.7,15.8C18.5,15.8 18.4,15.9 18.4,16.1C18.4,16.3 18.5,16.4 18.7,16.4C19.5,16.4 20.2,17.1 20.2,17.9C20.3,18.4 20.1,18.8 19.8,19.1Z" style="fill:white;fill-rule:nonzero;"/>
                        <path d="M17.4,11.1C17.3,11.1 17.1,11.1 17,11.2L13.6,14.6L10.7,14.6C10.5,14.6 10.4,14.7 10.4,14.9L10.4,21C10.4,21.2 10.5,21.3 10.7,21.3L13.8,21.3C14,21.3 14.1,21.2 14.1,21C14.1,20.8 14,20.7 13.8,20.7L11,20.7L11,15.2L13.8,15.2C13.9,15.2 14,15.2 14,15.1L17,12.2L17,23.8L15.4,22.2C15.3,22.1 15.1,22.1 14.9,22.2C14.8,22.3 14.8,22.5 14.9,22.7L17,24.8C17.1,24.9 17.1,24.9 17.2,24.9L17.3,24.9C17.4,24.9 17.5,24.7 17.5,24.6L17.5,11.4C17.6,11.3 17.5,11.2 17.4,11.1Z" style="fill:white;fill-rule:nonzero;"/>
                    </g>
                </g>
            </g>
        </g>
    </g>
</svg>
